<svg width="1024" height="366" viewBox="0 0 1024 366" fill="none" xmlns="http://www.w3.org/2000/svg">
<path d="M611 261.866C611 216.927 496 239.644 416.5 187.422C394.5 169.644 378.366 138.913 349 130.755C301 117.422 242 177.422 242 177.422C216 200.2 140 254.089 121 296.311L332.5 307.978L611 261.866Z" fill="#D5BAAC"/>
<path d="M1023.5 172.807C1023.5 172.807 1004.92 127.251 968 88.9179C931.085 50.5846 885.511 45.0291 857 45.0291C828.489 45.029 752 88.9179 752 88.9179C729.5 100.585 687.5 134.46 568.5 194.644L857 219.473L1023.5 172.807Z" fill="#D5BAAC"/>
<rect x="630" y="172.978" width="394" height="192.222" fill="#D5BAAC"/>
<rect x="587" y="189.644" width="58" height="175.556" fill="#D5BAAC"/>
<rect width="503" height="43.3333" transform="matrix(-1 0 0 1 589 321.867)" fill="#D5BAAC"/>
<rect width="390" height="122.222" transform="matrix(-1 0 0 1 616 239.644)" fill="#D5BAAC"/>
<rect width="21" height="49.9999" transform="matrix(-1 0 0 1 593 192.978)" fill="#D5BAAC"/>
<rect width="170" height="44.4443" transform="matrix(-1 0 0 1 293 297.422)" fill="#D5BAAC"/>
<path d="M54.4981 332.888C29.7685 332.888 16.3998 332.888 0 322.444V365.2H138.227C138.227 365.2 157.454 248.968 138.227 271.251C119 293.533 79.2276 332.888 54.4981 332.888Z" fill="#D5BAAC"/>
<path d="M694.866 135.742C706.263 131.116 710.562 127.345 715 114.644L694.866 135.742C679.603 141.936 651.609 149.662 593.5 182.422C492 239.644 412.5 201.311 412.5 201.311L503.311 317.712L665.636 166.371L694.866 135.742Z" fill="#D5BAAC"/>
</svg>
