<svg width="197" height="44" viewBox="0 0 197 44" fill="none" xmlns="http://www.w3.org/2000/svg">
<path d="M26.6912 30.74C26.8412 30.56 27.0962 30.47 27.4562 30.47C27.8462 30.47 28.1612 30.605 28.4012 30.875C28.6412 31.145 28.7612 31.655 28.7612 32.405C28.7612 33.155 28.5062 34.16 27.9962 35.42C27.5162 36.65 26.7962 37.895 25.8362 39.155C24.8762 40.385 23.5412 41.405 21.8312 42.215C20.1512 43.025 18.2612 43.43 16.1612 43.43C11.3012 43.43 7.40121 41.87 4.46121 38.75C1.52121 35.6 0.0512111 31.13 0.0512111 25.34C0.0512111 19.52 1.43121 15.155 4.19121 12.245C6.98121 9.305 10.6262 7.835 15.1262 7.835C18.0362 7.835 20.3162 8.585 21.9662 10.085C23.6162 11.585 24.4412 13.25 24.4412 15.08C24.4412 15.83 24.2162 16.43 23.7662 16.88C23.3162 17.33 22.8662 17.555 22.4162 17.555C21.5762 17.555 21.0062 17.375 20.7062 17.015C20.8862 16.565 20.9762 16.01 20.9762 15.35C20.9762 13.73 20.4512 12.44 19.4012 11.48C18.3812 10.52 16.8812 10.04 14.9012 10.04C11.9312 10.04 9.39621 11.465 7.29621 14.315C5.22621 17.135 4.19121 20.885 4.19121 25.565C4.19121 30.245 5.34621 34.025 7.65621 36.905C9.96621 39.755 12.7412 41.18 15.9812 41.18C19.2212 41.18 21.8162 40.205 23.7662 38.255C25.7162 36.275 26.6912 33.77 26.6912 30.74ZM35.7443 20.66C38.4143 20.66 40.5893 21.545 42.2693 23.315C43.9493 25.085 44.7893 27.5 44.7893 30.56C44.7893 33.59 43.9943 36.11 42.4043 38.12C40.8443 40.13 38.7443 41.135 36.1043 41.135C33.4643 41.135 31.2593 40.235 29.4893 38.435C27.7493 36.605 26.8793 34.085 26.8793 30.875C26.8793 27.635 27.6893 25.13 29.3093 23.36C30.9593 21.56 33.1043 20.66 35.7443 20.66ZM35.7893 22.415C34.9793 22.415 34.2743 22.625 33.6743 23.045C33.1043 23.435 32.8193 24.005 32.8193 24.755C32.8193 26.675 33.5693 28.52 35.0693 30.29C36.5693 32.03 38.3543 33.185 40.4243 33.755C40.4843 32.615 40.5143 31.64 40.5143 30.83C40.5143 27.71 40.1843 25.535 39.5243 24.305C38.8643 23.045 37.6193 22.415 35.7893 22.415ZM31.1543 30.83C31.1543 33.89 31.5293 36.08 32.2793 37.4C33.0593 38.72 34.3193 39.38 36.0593 39.38C37.2593 39.38 38.1743 39.08 38.8043 38.48C39.4643 37.85 39.9143 36.845 40.1543 35.465C38.2043 35.045 36.4043 34.16 34.7543 32.81C33.1343 31.46 31.9493 29.96 31.1993 28.31C31.1693 28.82 31.1543 29.66 31.1543 30.83ZM61.1099 30.335C61.6499 30.335 61.9199 31.13 61.9199 32.72C61.9199 35.03 61.2899 37.01 60.0299 38.66C58.7699 40.31 57.1649 41.135 55.2149 41.135C52.7849 41.135 50.9699 40.415 49.7699 38.975C48.5699 37.535 47.9699 35.495 47.9699 32.855V15.935C47.9699 12.065 48.3749 9.23 49.1849 7.43C49.9949 5.63 51.4199 4.73 53.4599 4.73C56.4299 4.73 57.9149 6.74 57.9149 10.76C57.9149 13.79 57.3149 16.22 56.1149 18.05C54.9449 19.88 53.5949 21.245 52.0649 22.145V34.205C52.0649 35.915 52.3949 37.205 53.0549 38.075C53.7149 38.945 54.6149 39.38 55.7549 39.38C56.8949 39.38 57.9599 38.69 58.9499 37.31C59.9399 35.93 60.4349 33.695 60.4349 30.605C60.4949 30.425 60.7199 30.335 61.1099 30.335ZM55.9799 10.805C55.9799 7.925 55.2599 6.485 53.8199 6.485C53.4599 6.485 53.1749 6.605 52.9649 6.845C52.7849 7.085 52.6199 7.685 52.4699 8.645C52.1999 10.115 52.0649 13.985 52.0649 20.255C54.6749 18.365 55.9799 15.215 55.9799 10.805ZM69.5382 20.66C72.2082 20.66 74.3832 21.545 76.0632 23.315C77.7432 25.085 78.5832 27.5 78.5832 30.56C78.5832 33.59 77.7882 36.11 76.1982 38.12C74.6382 40.13 72.5382 41.135 69.8982 41.135C67.2582 41.135 65.0532 40.235 63.2832 38.435C61.5432 36.605 60.6732 34.085 60.6732 30.875C60.6732 27.635 61.4832 25.13 63.1032 23.36C64.7532 21.56 66.8982 20.66 69.5382 20.66ZM69.5832 22.415C68.7732 22.415 68.0682 22.625 67.4682 23.045C66.8982 23.435 66.6132 24.005 66.6132 24.755C66.6132 26.675 67.3632 28.52 68.8632 30.29C70.3632 32.03 72.1482 33.185 74.2182 33.755C74.2782 32.615 74.3082 31.64 74.3082 30.83C74.3082 27.71 73.9782 25.535 73.3182 24.305C72.6582 23.045 71.4132 22.415 69.5832 22.415ZM64.9482 30.83C64.9482 33.89 65.3232 36.08 66.0732 37.4C66.8532 38.72 68.1132 39.38 69.8532 39.38C71.0532 39.38 71.9682 39.08 72.5982 38.48C73.2582 37.85 73.7082 36.845 73.9482 35.465C71.9982 35.045 70.1982 34.16 68.5482 32.81C66.9282 31.46 65.7432 29.96 64.9932 28.31C64.9632 28.82 64.9482 29.66 64.9482 30.83ZM85.7688 33.35V40.505C85.4688 40.925 84.9438 41.135 84.1938 41.135C83.4438 41.135 82.8438 40.91 82.3938 40.46C81.9438 39.98 81.7188 39.29 81.7188 38.39V21.29C82.0188 20.87 82.5438 20.66 83.2938 20.66C84.0438 20.66 84.6438 20.9 85.0938 21.38C85.5438 21.83 85.7688 22.505 85.7688 23.405V26.825C87.2688 23.105 89.3388 21.245 91.9788 21.245C93.8688 21.245 95.2488 21.755 96.1188 22.775C96.9888 23.765 97.4238 24.95 97.4238 26.33C97.4238 27.08 97.1988 27.68 96.7488 28.13C96.2988 28.58 95.8638 28.805 95.4438 28.805C94.6638 28.805 94.1538 28.625 93.9138 28.265C94.0938 27.815 94.1838 27.17 94.1838 26.33C94.1838 25.49 93.8988 24.725 93.3288 24.035C92.7588 23.345 92.0688 23 91.2588 23C89.8488 23 88.5738 24.29 87.4338 26.87C86.3238 29.42 85.7688 31.58 85.7688 33.35ZM147.427 1.4C147.427 0.949998 147.862 0.724998 148.732 0.724998C149.632 0.724998 150.547 1.22 151.477 2.21C152.407 3.17 152.872 4.28 152.872 5.54C152.872 10.16 149.437 12.47 142.567 12.47C139.807 12.47 137.257 12.23 134.917 11.75V33.305C134.917 36.455 134.317 38.96 133.117 40.82C131.947 42.68 130.162 43.61 127.762 43.61C125.392 43.61 123.607 43.055 122.407 41.945C121.207 40.865 120.607 39.425 120.607 37.625C120.607 35.315 121.357 34.16 122.857 34.16C123.217 34.16 123.532 34.25 123.802 34.43C124.072 34.61 124.297 34.865 124.477 35.195C124.237 35.825 124.117 36.755 124.117 37.985C124.117 39.215 124.432 40.16 125.062 40.82C125.722 41.45 126.547 41.765 127.537 41.765C129.607 41.765 130.687 39.845 130.777 36.005V10.76C128.797 10.19 126.877 9.485 125.017 8.645C123.067 10.985 120.112 12.155 116.152 12.155C114.532 12.155 113.212 11.81 112.192 11.12C111.172 10.4 110.662 9.32 110.662 7.88C110.662 5 112.462 3.56 116.062 3.56C118.642 3.56 122.407 4.52 127.357 6.44C129.187 7.13 131.482 7.775 134.242 8.375C137.032 8.975 139.867 9.275 142.747 9.275C145.627 9.275 147.592 8.96 148.642 8.33C149.692 7.7 150.217 6.77 150.217 5.54C150.217 4.79 150.007 4.145 149.587 3.605C149.197 3.035 148.792 2.66 148.372 2.48L147.787 2.21C147.547 2.03 147.427 1.76 147.427 1.4ZM116.107 10.085C119.317 10.085 121.552 9.29 122.812 7.7C119.602 6.29 117.427 5.585 116.287 5.585C115.177 5.585 114.382 5.795 113.902 6.215C113.392 6.605 113.137 7.115 113.137 7.745C113.137 9.305 114.127 10.085 116.107 10.085ZM162.097 30.875C162.727 30.875 163.042 31.355 163.042 32.315C163.042 34.535 162.262 36.56 160.702 38.39C159.172 40.22 156.832 41.135 153.682 41.135C150.532 41.135 147.997 40.295 146.077 38.615C144.187 36.905 143.242 34.415 143.242 31.145C143.242 27.845 144.082 25.28 145.762 23.45C147.442 21.59 149.587 20.66 152.197 20.66C154.087 20.66 155.467 21.17 156.337 22.19C157.207 23.18 157.642 24.365 157.642 25.745C157.642 27.995 156.697 29.87 154.807 31.37C152.947 32.84 150.562 33.575 147.652 33.575C147.922 35.495 148.612 36.95 149.722 37.94C150.862 38.9 152.347 39.38 154.177 39.38C156.037 39.38 157.702 38.69 159.172 37.31C160.672 35.9 161.422 33.845 161.422 31.145C161.452 30.965 161.677 30.875 162.097 30.875ZM147.517 31.505V31.91C149.377 31.67 150.982 31.085 152.332 30.155C153.712 29.225 154.402 27.845 154.402 26.015C154.402 24.845 154.147 23.96 153.637 23.36C153.127 22.73 152.407 22.415 151.477 22.415C150.067 22.415 149.047 23.105 148.417 24.485C147.817 25.865 147.517 28.205 147.517 31.505ZM169.847 31.955C168.647 31.535 167.447 31.1 166.247 30.65C165.077 30.17 164.087 29.495 163.277 28.625C162.467 27.755 162.062 26.645 162.062 25.295C162.062 23.915 162.692 22.805 163.952 21.965C165.212 21.095 167.042 20.66 169.442 20.66C171.872 20.66 173.762 21.08 175.112 21.92C176.492 22.76 177.182 23.735 177.182 24.845C177.182 25.385 176.972 25.82 176.552 26.15C176.162 26.48 175.772 26.645 175.382 26.645C174.632 26.645 174.137 26.465 173.897 26.105C174.077 25.895 174.167 25.49 174.167 24.89C174.167 24.26 173.702 23.69 172.772 23.18C171.842 22.67 170.807 22.415 169.667 22.415C168.527 22.415 167.582 22.625 166.832 23.045C166.082 23.465 165.707 24.11 165.707 24.98C165.707 25.82 166.127 26.555 166.967 27.185C167.837 27.815 168.872 28.34 170.072 28.76C171.302 29.18 172.517 29.63 173.717 30.11C174.947 30.59 175.982 31.28 176.822 32.18C177.692 33.05 178.127 34.13 178.127 35.42C178.127 37.34 177.287 38.78 175.607 39.74C173.957 40.67 171.767 41.135 169.037 41.135C166.337 41.135 164.132 40.355 162.422 38.795C160.742 37.205 159.902 35.24 159.902 32.9C159.902 32.06 160.067 31.4 160.397 30.92C160.727 30.44 161.102 30.2 161.522 30.2C162.302 30.2 162.752 30.335 162.872 30.605L162.962 30.74C162.782 31.19 162.692 31.745 162.692 32.405C162.692 34.415 163.277 36.08 164.447 37.4C165.617 38.72 167.237 39.38 169.307 39.38C172.487 39.38 174.092 38.255 174.122 36.005C174.122 34.295 172.697 32.945 169.847 31.955ZM180.771 16.745C180.771 15.845 180.996 15.17 181.446 14.72C181.896 14.24 182.466 14 183.156 14C183.846 14 184.401 14.21 184.821 14.63V21.29H190.986C191.616 21.29 192.021 21.41 192.201 21.65C192.411 21.89 192.516 22.295 192.516 22.865H184.821V34.205C184.821 35.855 185.286 37.13 186.216 38.03C187.176 38.93 188.271 39.38 189.501 39.38C191.361 39.38 192.726 38.69 193.596 37.31C194.466 35.93 194.901 33.695 194.901 30.605C194.961 30.425 195.186 30.335 195.576 30.335C196.116 30.335 196.386 31.13 196.386 32.72C196.386 35.15 195.771 37.16 194.541 38.75C193.341 40.34 191.481 41.135 188.961 41.135C186.441 41.135 184.446 40.475 182.976 39.155C181.506 37.835 180.771 35.87 180.771 33.26V16.745Z" fill="white"/>
</svg>
