<svg width="135" height="81" viewBox="0 0 135 81" fill="none" xmlns="http://www.w3.org/2000/svg">
<rect y="5" width="134" height="75" rx="9" fill="#93A38C" fill-opacity="0.1"/>
<rect x="2" y="5" width="130" height="76" rx="9" fill="#93A38C" fill-opacity="0.15"/>
<rect x="5" y="3" width="130" height="75" rx="9" fill="#ACB2A3" fill-opacity="0.2"/>
<path d="M103 36L113 43.2L103 51V36Z" fill="url(#paint0_linear)" fill-opacity="0.8"/>
<path d="M16 37.25C16 37.61 16.08 37.97 16.24 38.33C16.06 38.57 15.76 38.69 15.34 38.69C14.92 38.69 14.56 38.54 14.26 38.24C13.98 37.94 13.84 37.45 13.84 36.77C13.84 35.19 14.32 33.91 15.28 32.93C16.24 31.93 17.52 31.43 19.12 31.43C21.76 31.43 23.33 32.87 23.83 35.75C24.27 34.41 24.99 33.34 25.99 32.54C26.99 31.74 28.16 31.34 29.5 31.34C31.58 31.36 33.14 32.15 34.18 33.71C35.22 35.25 35.74 37.32 35.74 39.92V48.41C35.74 49.57 35.97 50.5 36.43 51.2C36.91 51.9 37.53 52.25 38.29 52.25C40.17 52.25 41.11 50.37 41.11 46.61C41.13 46.49 41.23 46.43 41.41 46.43C41.61 46.43 41.76 46.46 41.86 46.52C42.16 46.74 42.31 47.23 42.31 47.99C42.31 49.67 41.91 51.03 41.11 52.07C40.31 53.11 39.25 53.63 37.93 53.63C36.09 53.63 34.8 53.02 34.06 51.8C33.34 50.56 32.98 48.83 32.98 46.61V39.92C32.98 35.2 31.82 32.84 29.5 32.84C28.6 32.84 27.81 33.07 27.13 33.53C26.47 33.97 25.95 34.52 25.57 35.18C25.19 35.84 24.89 36.63 24.67 37.55C24.29 39.03 24.1 40.72 24.1 42.62V46.46C24.1 48.94 23.7 50.91 22.9 52.37C22.12 53.81 20.93 54.53 19.33 54.53C17.75 54.53 16.56 54.16 15.76 53.42C14.96 52.7 14.56 51.74 14.56 50.54C14.56 49 15.06 48.23 16.06 48.23C16.3 48.23 16.51 48.29 16.69 48.41C16.87 48.51 17.02 48.68 17.14 48.92C16.98 49.34 16.9 49.97 16.9 50.81C16.9 51.63 17.11 52.25 17.53 52.67C17.97 53.09 18.52 53.3 19.18 53.3C20.6 53.3 21.31 51.62 21.31 48.26V36.65C21.31 35.49 21.07 34.56 20.59 33.86C20.13 33.16 19.49 32.81 18.67 32.81C17.87 32.81 17.22 33.14 16.72 33.8C16.24 34.44 16 35.59 16 37.25ZM53.6615 46.25C54.0815 46.25 54.2915 46.57 54.2915 47.21C54.2915 48.69 53.7715 50.04 52.7315 51.26C51.7115 52.48 50.1515 53.09 48.0515 53.09C45.9515 53.09 44.2615 52.53 42.9815 51.41C41.7215 50.27 41.0915 48.61 41.0915 46.43C41.0915 44.23 41.6515 42.52 42.7715 41.3C43.8915 40.06 45.3215 39.44 47.0615 39.44C48.3215 39.44 49.2415 39.78 49.8215 40.46C50.4015 41.12 50.6915 41.91 50.6915 42.83C50.6915 44.33 50.0615 45.58 48.8015 46.58C47.5615 47.56 45.9715 48.05 44.0315 48.05C44.2115 49.33 44.6715 50.3 45.4115 50.96C46.1715 51.6 47.1615 51.92 48.3815 51.92C49.6215 51.92 50.7315 51.46 51.7115 50.54C52.7115 49.6 53.2115 48.23 53.2115 46.43C53.2315 46.31 53.3815 46.25 53.6615 46.25ZM43.9415 46.67V46.94C45.1815 46.78 46.2515 46.39 47.1515 45.77C48.0715 45.15 48.5315 44.23 48.5315 43.01C48.5315 42.23 48.3615 41.64 48.0215 41.24C47.6815 40.82 47.2015 40.61 46.5815 40.61C45.6415 40.61 44.9615 41.07 44.5415 41.99C44.1415 42.91 43.9415 44.47 43.9415 46.67ZM66.1783 52.22C66.8983 52.22 67.5083 51.75 68.0083 50.81C68.5083 49.87 68.7583 48.29 68.7583 46.07C68.7783 45.95 68.9283 45.89 69.2083 45.89C69.5683 45.89 69.7483 46.42 69.7483 47.48C69.7483 49.26 69.3983 50.69 68.6983 51.77C67.9983 52.85 66.9883 53.39 65.6683 53.39C64.3683 53.39 63.2783 53 62.3983 52.22C61.5383 51.42 60.6483 50.16 59.7283 48.44C58.9883 49.92 58.1983 51.08 57.3583 51.92C56.5383 52.74 55.5683 53.15 54.4483 53.15C54.2283 53.15 54.0583 53.09 53.9383 52.97C53.8183 52.85 53.7583 52.72 53.7583 52.58C53.7583 52.44 53.8183 52.31 53.9383 52.19C54.0783 52.07 54.3183 52.01 54.6583 52.01C55.0183 52.01 55.4083 51.89 55.8283 51.65C56.2683 51.39 56.6783 50.98 57.0583 50.42C57.6383 49.6 58.2683 48.45 58.9483 46.97L56.8183 42.92C56.3783 42.08 56.0183 41.49 55.7383 41.15C55.4783 40.81 55.2083 40.64 54.9283 40.64C54.3083 40.64 53.9983 41.04 53.9983 41.84L54.1183 42.56C54.0383 42.68 53.8883 42.74 53.6683 42.74C53.2683 42.74 53.0683 42.4 53.0683 41.72C53.0683 41.02 53.2583 40.47 53.6383 40.07C54.0383 39.65 54.6683 39.44 55.5283 39.44C56.4083 39.44 57.2083 39.75 57.9283 40.37C58.6683 40.97 59.4183 41.97 60.1783 43.37L60.7183 44.42C62.0183 41.94 63.3783 40.41 64.7983 39.83C65.4383 39.57 66.1383 39.44 66.8983 39.44C67.2983 39.44 67.4983 39.6 67.4983 39.92C67.4983 40.34 67.2683 40.55 66.8083 40.55C65.7083 40.55 64.7383 41.02 63.8983 41.96C63.0583 42.88 62.2383 44.15 61.4383 45.77L62.9083 48.47C63.5883 49.77 64.1683 50.72 64.6483 51.32C65.1283 51.92 65.6383 52.22 66.1783 52.22ZM68.7178 36.83C68.7178 36.23 68.8678 35.78 69.1678 35.48C69.4678 35.16 69.8478 35 70.3078 35C70.7678 35 71.1378 35.14 71.4178 35.42V39.86H75.5278C75.9478 39.86 76.2178 39.94 76.3378 40.1C76.4778 40.26 76.5478 40.53 76.5478 40.91H71.4178V48.47C71.4178 49.57 71.7278 50.42 72.3478 51.02C72.9878 51.62 73.7178 51.92 74.5378 51.92C75.7778 51.92 76.6878 51.46 77.2678 50.54C77.8478 49.62 78.1378 48.13 78.1378 46.07C78.1778 45.95 78.3278 45.89 78.5878 45.89C78.9478 45.89 79.1278 46.42 79.1278 47.48C79.1278 49.1 78.7178 50.44 77.8978 51.5C77.0978 52.56 75.8578 53.09 74.1778 53.09C72.4978 53.09 71.1678 52.65 70.1878 51.77C69.2078 50.89 68.7178 49.58 68.7178 47.84V36.83Z" fill="#ACB2A3"/>
<circle cx="106" cy="43" r="16.5" stroke="#ACB2A3" stroke-width="7"/>
<circle cx="107" cy="43" r="17.5" stroke="#879D82" stroke-opacity="0.9" stroke-width="5"/>
<path d="M14 38.25C14 38.61 14.08 38.97 14.24 39.33C14.06 39.57 13.76 39.69 13.34 39.69C12.92 39.69 12.56 39.54 12.26 39.24C11.98 38.94 11.84 38.45 11.84 37.77C11.84 36.19 12.32 34.91 13.28 33.93C14.24 32.93 15.52 32.43 17.12 32.43C19.76 32.43 21.33 33.87 21.83 36.75C22.27 35.41 22.99 34.34 23.99 33.54C24.99 32.74 26.16 32.34 27.5 32.34C29.58 32.36 31.14 33.15 32.18 34.71C33.22 36.25 33.74 38.32 33.74 40.92V49.41C33.74 50.57 33.97 51.5 34.43 52.2C34.91 52.9 35.53 53.25 36.29 53.25C38.17 53.25 39.11 51.37 39.11 47.61C39.13 47.49 39.23 47.43 39.41 47.43C39.61 47.43 39.76 47.46 39.86 47.52C40.16 47.74 40.31 48.23 40.31 48.99C40.31 50.67 39.91 52.03 39.11 53.07C38.31 54.11 37.25 54.63 35.93 54.63C34.09 54.63 32.8 54.02 32.06 52.8C31.34 51.56 30.98 49.83 30.98 47.61V40.92C30.98 36.2 29.82 33.84 27.5 33.84C26.6 33.84 25.81 34.07 25.13 34.53C24.47 34.97 23.95 35.52 23.57 36.18C23.19 36.84 22.89 37.63 22.67 38.55C22.29 40.03 22.1 41.72 22.1 43.62V47.46C22.1 49.94 21.7 51.91 20.9 53.37C20.12 54.81 18.93 55.53 17.33 55.53C15.75 55.53 14.56 55.16 13.76 54.42C12.96 53.7 12.56 52.74 12.56 51.54C12.56 50 13.06 49.23 14.06 49.23C14.3 49.23 14.51 49.29 14.69 49.41C14.87 49.51 15.02 49.68 15.14 49.92C14.98 50.34 14.9 50.97 14.9 51.81C14.9 52.63 15.11 53.25 15.53 53.67C15.97 54.09 16.52 54.3 17.18 54.3C18.6 54.3 19.31 52.62 19.31 49.26V37.65C19.31 36.49 19.07 35.56 18.59 34.86C18.13 34.16 17.49 33.81 16.67 33.81C15.87 33.81 15.22 34.14 14.72 34.8C14.24 35.44 14 36.59 14 38.25ZM51.6615 47.25C52.0815 47.25 52.2915 47.57 52.2915 48.21C52.2915 49.69 51.7715 51.04 50.7315 52.26C49.7115 53.48 48.1515 54.09 46.0515 54.09C43.9515 54.09 42.2615 53.53 40.9815 52.41C39.7215 51.27 39.0915 49.61 39.0915 47.43C39.0915 45.23 39.6515 43.52 40.7715 42.3C41.8915 41.06 43.3215 40.44 45.0615 40.44C46.3215 40.44 47.2415 40.78 47.8215 41.46C48.4015 42.12 48.6915 42.91 48.6915 43.83C48.6915 45.33 48.0615 46.58 46.8015 47.58C45.5615 48.56 43.9715 49.05 42.0315 49.05C42.2115 50.33 42.6715 51.3 43.4115 51.96C44.1715 52.6 45.1615 52.92 46.3815 52.92C47.6215 52.92 48.7315 52.46 49.7115 51.54C50.7115 50.6 51.2115 49.23 51.2115 47.43C51.2315 47.31 51.3815 47.25 51.6615 47.25ZM41.9415 47.67V47.94C43.1815 47.78 44.2515 47.39 45.1515 46.77C46.0715 46.15 46.5315 45.23 46.5315 44.01C46.5315 43.23 46.3615 42.64 46.0215 42.24C45.6815 41.82 45.2015 41.61 44.5815 41.61C43.6415 41.61 42.9615 42.07 42.5415 42.99C42.1415 43.91 41.9415 45.47 41.9415 47.67ZM64.1783 53.22C64.8983 53.22 65.5083 52.75 66.0083 51.81C66.5083 50.87 66.7583 49.29 66.7583 47.07C66.7783 46.95 66.9283 46.89 67.2083 46.89C67.5683 46.89 67.7483 47.42 67.7483 48.48C67.7483 50.26 67.3983 51.69 66.6983 52.77C65.9983 53.85 64.9883 54.39 63.6683 54.39C62.3683 54.39 61.2783 54 60.3983 53.22C59.5383 52.42 58.6483 51.16 57.7283 49.44C56.9883 50.92 56.1983 52.08 55.3583 52.92C54.5383 53.74 53.5683 54.15 52.4483 54.15C52.2283 54.15 52.0583 54.09 51.9383 53.97C51.8183 53.85 51.7583 53.72 51.7583 53.58C51.7583 53.44 51.8183 53.31 51.9383 53.19C52.0783 53.07 52.3183 53.01 52.6583 53.01C53.0183 53.01 53.4083 52.89 53.8283 52.65C54.2683 52.39 54.6783 51.98 55.0583 51.42C55.6383 50.6 56.2683 49.45 56.9483 47.97L54.8183 43.92C54.3783 43.08 54.0183 42.49 53.7383 42.15C53.4783 41.81 53.2083 41.64 52.9283 41.64C52.3083 41.64 51.9983 42.04 51.9983 42.84L52.1183 43.56C52.0383 43.68 51.8883 43.74 51.6683 43.74C51.2683 43.74 51.0683 43.4 51.0683 42.72C51.0683 42.02 51.2583 41.47 51.6383 41.07C52.0383 40.65 52.6683 40.44 53.5283 40.44C54.4083 40.44 55.2083 40.75 55.9283 41.37C56.6683 41.97 57.4183 42.97 58.1783 44.37L58.7183 45.42C60.0183 42.94 61.3783 41.41 62.7983 40.83C63.4383 40.57 64.1383 40.44 64.8983 40.44C65.2983 40.44 65.4983 40.6 65.4983 40.92C65.4983 41.34 65.2683 41.55 64.8083 41.55C63.7083 41.55 62.7383 42.02 61.8983 42.96C61.0583 43.88 60.2383 45.15 59.4383 46.77L60.9083 49.47C61.5883 50.77 62.1683 51.72 62.6483 52.32C63.1283 52.92 63.6383 53.22 64.1783 53.22ZM66.7178 37.83C66.7178 37.23 66.8678 36.78 67.1678 36.48C67.4678 36.16 67.8478 36 68.3078 36C68.7678 36 69.1378 36.14 69.4178 36.42V40.86H73.5278C73.9478 40.86 74.2178 40.94 74.3378 41.1C74.4778 41.26 74.5478 41.53 74.5478 41.91H69.4178V49.47C69.4178 50.57 69.7278 51.42 70.3478 52.02C70.9878 52.62 71.7178 52.92 72.5378 52.92C73.7778 52.92 74.6878 52.46 75.2678 51.54C75.8478 50.62 76.1378 49.13 76.1378 47.07C76.1778 46.95 76.3278 46.89 76.5878 46.89C76.9478 46.89 77.1278 47.42 77.1278 48.48C77.1278 50.1 76.7178 51.44 75.8978 52.5C75.0978 53.56 73.8578 54.09 72.1778 54.09C70.4978 54.09 69.1678 53.65 68.1878 52.77C67.2078 51.89 66.7178 50.58 66.7178 48.84V37.83Z" fill="#8B9F86"/>
<defs>
<linearGradient id="paint0_linear" x1="110.812" y1="36" x2="110.812" y2="51" gradientUnits="userSpaceOnUse">
<stop stop-color="#879D82"/>
<stop offset="0.104167" stop-color="#879D82" stop-opacity="0.77"/>
<stop offset="0.328125" stop-color="#315637" stop-opacity="0.66"/>
<stop offset="0.666667" stop-color="#26361E" stop-opacity="0.63"/>
<stop offset="0.869792" stop-color="#627D5C" stop-opacity="0.76"/>
<stop offset="1" stop-color="#567135" stop-opacity="0.8"/>
</linearGradient>
</defs>
</svg>
