<svg width="135" height="78" viewBox="0 0 135 78" fill="none" xmlns="http://www.w3.org/2000/svg">
<rect y="2" width="134" height="75" rx="9" fill="#93A38C" fill-opacity="0.1"/>
<rect x="2" y="2" width="130" height="76" rx="9" fill="#93A38C" fill-opacity="0.15"/>
<rect x="5" width="130" height="75" rx="9" fill="#ACB2A3" fill-opacity="0.2"/>
<path d="M25.7241 27.74C26.0841 27.74 26.3741 27.85 26.5941 28.07C26.8141 28.27 26.9241 28.49 26.9241 28.73C26.9241 28.97 26.8641 29.11 26.7441 29.15C25.3041 29.15 24.0241 29.67 22.9041 30.71C21.8041 31.75 20.9741 33.05 20.4141 34.61C19.8741 36.17 19.6041 37.82 19.6041 39.56C19.6041 42.46 20.1441 44.85 21.2241 46.73C22.3041 48.61 23.7941 49.62 25.6941 49.76C24.4341 48.28 23.4541 46.54 22.7541 44.54C22.0541 42.54 21.7041 40.56 21.7041 38.6C21.7041 35.98 22.3241 33.89 23.5641 32.33C24.8241 30.75 26.4641 29.96 28.4841 29.96C30.5241 29.96 32.2341 30.84 33.6141 32.6C35.0141 34.36 35.7141 36.63 35.7141 39.41C35.7141 42.17 35.1241 44.55 33.9441 46.55C32.7641 48.55 31.1441 49.89 29.0841 50.57C30.6241 51.55 32.3141 52.04 34.1541 52.04C35.9941 52.04 37.4641 51.32 38.5641 49.88C39.6841 48.44 40.2441 46.54 40.2441 44.18C40.3441 44.06 40.5141 44 40.7541 44C41.0141 44 41.2241 44.09 41.3841 44.27C41.5441 44.45 41.6241 44.8 41.6241 45.32C41.6241 45.84 41.5441 46.48 41.3841 47.24C41.2441 48 40.9841 48.77 40.6041 49.55C40.2241 50.31 39.7441 50.98 39.1641 51.56C38.6041 52.14 37.8741 52.61 36.9741 52.97C36.0741 53.35 35.0641 53.54 33.9441 53.54C31.3241 53.54 28.9741 52.68 26.8941 50.96C26.6341 50.98 26.3741 50.99 26.1141 50.99C23.4141 50.99 21.1841 50 19.4241 48.02C17.6841 46.02 16.8141 43.2 16.8141 39.56C16.8141 37.8 17.0941 36.16 17.6541 34.64C18.2141 33.1 18.9341 31.85 19.8141 30.89C20.6941 29.91 21.6541 29.14 22.6941 28.58C23.7341 28.02 24.7441 27.74 25.7241 27.74ZM27.8541 49.55C29.4341 48.99 30.6741 47.78 31.5741 45.92C32.4941 44.04 32.9541 41.85 32.9541 39.35C32.9541 36.83 32.5741 34.89 31.8141 33.53C31.0541 32.17 29.9441 31.49 28.4841 31.49C27.0441 31.49 25.8441 32.13 24.8841 33.41C23.9441 34.69 23.4741 36.34 23.4741 38.36C23.4741 40.38 23.8641 42.41 24.6441 44.45C25.4241 46.49 26.4941 48.19 27.8541 49.55ZM48.3259 38.27C48.3259 37.67 48.4959 37.22 48.8359 36.92C49.1759 36.6 49.5859 36.44 50.0659 36.44C50.5459 36.44 50.9259 36.58 51.2059 36.86V45.47C51.2059 46.61 51.3859 47.47 51.7459 48.05C52.1059 48.63 52.5959 48.92 53.2159 48.92C53.8359 48.92 54.4359 48.56 55.0159 47.84C55.6959 46.98 56.0359 45.39 56.0359 43.07C56.0559 42.95 56.2059 42.89 56.4859 42.89C56.8459 42.89 57.0259 43.42 57.0259 44.48C57.0259 46.18 56.6559 47.54 55.9159 48.56C55.1959 49.58 54.1759 50.09 52.8559 50.09C50.7559 50.09 49.3759 49.14 48.7159 47.24C47.9359 49.14 46.5059 50.09 44.4259 50.09C43.1859 50.09 42.1859 49.72 41.4259 48.98C40.6659 48.22 40.2859 47.14 40.2859 45.74V38.27C40.2859 37.67 40.4359 37.22 40.7359 36.92C41.0359 36.6 41.4159 36.44 41.8759 36.44C42.3359 36.44 42.7059 36.58 42.9859 36.86V45.47C42.9859 47.85 43.5859 49.04 44.7859 49.04C45.6859 49.04 46.4959 48.5 47.2159 47.42C47.9559 46.34 48.3259 44.82 48.3259 42.86V38.27ZM56.2862 33.5C55.9462 33.16 55.7762 32.74 55.7762 32.24C55.7762 31.74 55.9462 31.32 56.2862 30.98C56.6262 30.62 57.0462 30.44 57.5462 30.44C58.0462 30.44 58.4662 30.62 58.8062 30.98C59.1662 31.32 59.3462 31.74 59.3462 32.24C59.3462 32.74 59.1662 33.16 58.8062 33.5C58.4662 33.84 58.0462 34.01 57.5462 34.01C57.0462 34.01 56.6262 33.84 56.2862 33.5ZM56.1662 38.27C56.1662 37.67 56.3162 37.22 56.6162 36.92C56.9162 36.6 57.2962 36.44 57.7562 36.44C58.2162 36.44 58.5862 36.58 58.8662 36.86V45.47C58.8662 46.61 59.0862 47.47 59.5262 48.05C59.9662 48.63 60.5662 48.92 61.3262 48.92C62.0862 48.92 62.7962 48.46 63.4562 47.54C64.1162 46.62 64.4462 45.13 64.4462 43.07C64.4862 42.95 64.6362 42.89 64.8962 42.89C65.2562 42.89 65.4362 43.42 65.4362 44.48C65.4362 46.02 65.0162 47.34 64.1762 48.44C63.3362 49.54 62.2662 50.09 60.9662 50.09C59.3462 50.09 58.1362 49.61 57.3362 48.65C56.5562 47.69 56.1662 46.33 56.1662 44.57V38.27ZM64.5137 33.83C64.5137 33.23 64.6637 32.78 64.9637 32.48C65.2637 32.16 65.6437 32 66.1037 32C66.5637 32 66.9337 32.14 67.2137 32.42V36.86H71.3237C71.7437 36.86 72.0137 36.94 72.1337 37.1C72.2737 37.26 72.3437 37.53 72.3437 37.91H67.2137V45.47C67.2137 46.57 67.5237 47.42 68.1437 48.02C68.7837 48.62 69.5137 48.92 70.3337 48.92C71.5737 48.92 72.4837 48.46 73.0637 47.54C73.6437 46.62 73.9337 45.13 73.9337 43.07C73.9737 42.95 74.1237 42.89 74.3837 42.89C74.7437 42.89 74.9237 43.42 74.9237 44.48C74.9237 46.1 74.5137 47.44 73.6937 48.5C72.8937 49.56 71.6537 50.09 69.9737 50.09C68.2937 50.09 66.9637 49.65 65.9837 48.77C65.0037 47.89 64.5137 46.58 64.5137 44.84V33.83Z" fill="#ACB2A3"/>
<circle cx="106" cy="40" r="16.5" stroke="#ACB2A3" stroke-width="7"/>
<circle cx="107" cy="40" r="17.5" stroke="#879D82" stroke-opacity="0.9" stroke-width="5"/>
<path d="M23.7241 28.74C24.0841 28.74 24.3741 28.85 24.5941 29.07C24.8141 29.27 24.9241 29.49 24.9241 29.73C24.9241 29.97 24.8641 30.11 24.7441 30.15C23.3041 30.15 22.0241 30.67 20.9041 31.71C19.8041 32.75 18.9741 34.05 18.4141 35.61C17.8741 37.17 17.6041 38.82 17.6041 40.56C17.6041 43.46 18.1441 45.85 19.2241 47.73C20.3041 49.61 21.7941 50.62 23.6941 50.76C22.4341 49.28 21.4541 47.54 20.7541 45.54C20.0541 43.54 19.7041 41.56 19.7041 39.6C19.7041 36.98 20.3241 34.89 21.5641 33.33C22.8241 31.75 24.4641 30.96 26.4841 30.96C28.5241 30.96 30.2341 31.84 31.6141 33.6C33.0141 35.36 33.7141 37.63 33.7141 40.41C33.7141 43.17 33.1241 45.55 31.9441 47.55C30.7641 49.55 29.1441 50.89 27.0841 51.57C28.6241 52.55 30.3141 53.04 32.1541 53.04C33.9941 53.04 35.4641 52.32 36.5641 50.88C37.6841 49.44 38.2441 47.54 38.2441 45.18C38.3441 45.06 38.5141 45 38.7541 45C39.0141 45 39.2241 45.09 39.3841 45.27C39.5441 45.45 39.6241 45.8 39.6241 46.32C39.6241 46.84 39.5441 47.48 39.3841 48.24C39.2441 49 38.9841 49.77 38.6041 50.55C38.2241 51.31 37.7441 51.98 37.1641 52.56C36.6041 53.14 35.8741 53.61 34.9741 53.97C34.0741 54.35 33.0641 54.54 31.9441 54.54C29.3241 54.54 26.9741 53.68 24.8941 51.96C24.6341 51.98 24.3741 51.99 24.1141 51.99C21.4141 51.99 19.1841 51 17.4241 49.02C15.6841 47.02 14.8141 44.2 14.8141 40.56C14.8141 38.8 15.0941 37.16 15.6541 35.64C16.2141 34.1 16.9341 32.85 17.8141 31.89C18.6941 30.91 19.6541 30.14 20.6941 29.58C21.7341 29.02 22.7441 28.74 23.7241 28.74ZM25.8541 50.55C27.4341 49.99 28.6741 48.78 29.5741 46.92C30.4941 45.04 30.9541 42.85 30.9541 40.35C30.9541 37.83 30.5741 35.89 29.8141 34.53C29.0541 33.17 27.9441 32.49 26.4841 32.49C25.0441 32.49 23.8441 33.13 22.8841 34.41C21.9441 35.69 21.4741 37.34 21.4741 39.36C21.4741 41.38 21.8641 43.41 22.6441 45.45C23.4241 47.49 24.4941 49.19 25.8541 50.55ZM46.3259 39.27C46.3259 38.67 46.4959 38.22 46.8359 37.92C47.1759 37.6 47.5859 37.44 48.0659 37.44C48.5459 37.44 48.9259 37.58 49.2059 37.86V46.47C49.2059 47.61 49.3859 48.47 49.7459 49.05C50.1059 49.63 50.5959 49.92 51.2159 49.92C51.8359 49.92 52.4359 49.56 53.0159 48.84C53.6959 47.98 54.0359 46.39 54.0359 44.07C54.0559 43.95 54.2059 43.89 54.4859 43.89C54.8459 43.89 55.0259 44.42 55.0259 45.48C55.0259 47.18 54.6559 48.54 53.9159 49.56C53.1959 50.58 52.1759 51.09 50.8559 51.09C48.7559 51.09 47.3759 50.14 46.7159 48.24C45.9359 50.14 44.5059 51.09 42.4259 51.09C41.1859 51.09 40.1859 50.72 39.4259 49.98C38.6659 49.22 38.2859 48.14 38.2859 46.74V39.27C38.2859 38.67 38.4359 38.22 38.7359 37.92C39.0359 37.6 39.4159 37.44 39.8759 37.44C40.3359 37.44 40.7059 37.58 40.9859 37.86V46.47C40.9859 48.85 41.5859 50.04 42.7859 50.04C43.6859 50.04 44.4959 49.5 45.2159 48.42C45.9559 47.34 46.3259 45.82 46.3259 43.86V39.27ZM54.2862 34.5C53.9462 34.16 53.7762 33.74 53.7762 33.24C53.7762 32.74 53.9462 32.32 54.2862 31.98C54.6262 31.62 55.0462 31.44 55.5462 31.44C56.0462 31.44 56.4662 31.62 56.8062 31.98C57.1662 32.32 57.3462 32.74 57.3462 33.24C57.3462 33.74 57.1662 34.16 56.8062 34.5C56.4662 34.84 56.0462 35.01 55.5462 35.01C55.0462 35.01 54.6262 34.84 54.2862 34.5ZM54.1662 39.27C54.1662 38.67 54.3162 38.22 54.6162 37.92C54.9162 37.6 55.2962 37.44 55.7562 37.44C56.2162 37.44 56.5862 37.58 56.8662 37.86V46.47C56.8662 47.61 57.0862 48.47 57.5262 49.05C57.9662 49.63 58.5662 49.92 59.3262 49.92C60.0862 49.92 60.7962 49.46 61.4562 48.54C62.1162 47.62 62.4462 46.13 62.4462 44.07C62.4862 43.95 62.6362 43.89 62.8962 43.89C63.2562 43.89 63.4362 44.42 63.4362 45.48C63.4362 47.02 63.0162 48.34 62.1762 49.44C61.3362 50.54 60.2662 51.09 58.9662 51.09C57.3462 51.09 56.1362 50.61 55.3362 49.65C54.5562 48.69 54.1662 47.33 54.1662 45.57V39.27ZM62.5137 34.83C62.5137 34.23 62.6637 33.78 62.9637 33.48C63.2637 33.16 63.6437 33 64.1037 33C64.5637 33 64.9337 33.14 65.2137 33.42V37.86H69.3237C69.7437 37.86 70.0137 37.94 70.1337 38.1C70.2737 38.26 70.3437 38.53 70.3437 38.91H65.2137V46.47C65.2137 47.57 65.5237 48.42 66.1437 49.02C66.7837 49.62 67.5137 49.92 68.3337 49.92C69.5737 49.92 70.4837 49.46 71.0637 48.54C71.6437 47.62 71.9337 46.13 71.9337 44.07C71.9737 43.95 72.1237 43.89 72.3837 43.89C72.7437 43.89 72.9237 44.42 72.9237 45.48C72.9237 47.1 72.5137 48.44 71.6937 49.5C70.8937 50.56 69.6537 51.09 67.9737 51.09C66.2937 51.09 64.9637 50.65 63.9837 49.77C63.0037 48.89 62.5137 47.58 62.5137 45.84V34.83Z" fill="#8B9F86"/>
<line x1="100.237" y1="32.7626" x2="114.237" y2="46.7626" stroke="#ACB2A3" stroke-width="3.5"/>
<line x1="98.8839" y1="33.1161" x2="112.884" y2="47.1161" stroke="#879D82" stroke-width="2.5"/>
<line x1="98.7626" y1="46.4861" x2="112.486" y2="32.7625" stroke="#ACB2A3" stroke-width="3.5"/>
<line x1="100.116" y1="47.612" x2="113.612" y2="34.1161" stroke="#879D82" stroke-width="2.5"/>
</svg>
