<svg width="153" height="76" viewBox="0 0 153 76" fill="none" xmlns="http://www.w3.org/2000/svg">
<rect x="18" y="1" width="135" height="72" rx="9" fill="#93A38C" fill-opacity="0.2"/>
<rect x="16" width="137" height="76" rx="9" fill="#93A38C" fill-opacity="0.05"/>
<path d="M121 29L131 36.2L121 44V29Z" fill="url(#paint0_linear)" fill-opacity="0.8"/>
<path d="M46.927 44.41C46.927 43.45 46.697 42.63 46.237 41.95C45.797 41.27 45.217 40.74 44.497 40.36C43.797 39.98 43.017 39.64 42.157 39.34C41.297 39.04 40.437 38.74 39.577 38.44C38.717 38.12 37.927 37.75 37.207 37.33C36.507 36.89 35.927 36.29 35.467 35.53C35.027 34.77 34.807 33.85 34.807 32.77C34.807 30.91 35.487 29.45 36.847 28.39C38.227 27.33 39.987 26.8 42.127 26.8C44.287 26.8 46.007 27.29 47.287 28.27C48.567 29.25 49.207 30.32 49.207 31.48C49.207 32.28 49.047 32.88 48.727 33.28C48.427 33.66 48.067 33.85 47.647 33.85C46.867 33.85 46.367 33.7 46.147 33.4L46.057 33.25C46.257 32.99 46.357 32.49 46.357 31.75C46.357 30.61 45.877 29.72 44.917 29.08C43.957 28.42 42.837 28.09 41.557 28.09C40.297 28.09 39.297 28.43 38.557 29.11C37.817 29.79 37.447 30.62 37.447 31.6C37.447 32.58 37.667 33.4 38.107 34.06C38.567 34.7 39.157 35.2 39.877 35.56C40.597 35.92 41.387 36.24 42.247 36.52C43.127 36.8 43.997 37.11 44.857 37.45C45.737 37.77 46.537 38.17 47.257 38.65C47.977 39.11 48.557 39.77 48.997 40.63C49.457 41.49 49.687 42.53 49.687 43.75C49.687 45.89 48.927 47.53 47.407 48.67C45.887 49.81 43.977 50.38 41.677 50.38C39.397 50.38 37.407 49.8 35.707 48.64C34.027 47.46 33.187 45.99 33.187 44.23C33.187 43.41 33.347 42.77 33.667 42.31C33.987 41.83 34.367 41.59 34.807 41.59C35.587 41.59 36.087 41.72 36.307 41.98L36.397 42.13C36.217 42.63 36.127 43.24 36.127 43.96C36.127 45.32 36.677 46.51 37.777 47.53C38.897 48.55 40.357 49.06 42.157 49.06C43.457 49.06 44.577 48.61 45.517 47.71C46.457 46.79 46.927 45.69 46.927 44.41ZM50.9102 32.83C50.9102 32.23 51.0602 31.78 51.3602 31.48C51.6602 31.16 52.0402 31 52.5002 31C52.9602 31 53.3302 31.14 53.6102 31.42V35.86H57.7202C58.1402 35.86 58.4102 35.94 58.5302 36.1C58.6702 36.26 58.7402 36.53 58.7402 36.91H53.6102V44.47C53.6102 45.57 53.9202 46.42 54.5402 47.02C55.1802 47.62 55.9102 47.92 56.7302 47.92C57.9702 47.92 58.8802 47.46 59.4602 46.54C60.0402 45.62 60.3302 44.13 60.3302 42.07C60.3702 41.95 60.5202 41.89 60.7802 41.89C61.1402 41.89 61.3202 42.42 61.3202 43.48C61.3202 45.1 60.9102 46.44 60.0902 47.5C59.2902 48.56 58.0502 49.09 56.3702 49.09C54.6902 49.09 53.3602 48.65 52.3802 47.77C51.4002 46.89 50.9102 45.58 50.9102 43.84V32.83ZM69.3123 36.31C69.5723 35.73 69.9823 35.44 70.5423 35.44C71.1223 35.44 71.5523 35.58 71.8323 35.86V44.47C71.8323 45.61 72.0123 46.47 72.3723 47.05C72.7323 47.63 73.2223 47.92 73.8423 47.92C75.7223 47.92 76.6623 45.97 76.6623 42.07C76.6823 41.95 76.8323 41.89 77.1123 41.89C77.4723 41.89 77.6523 42.42 77.6523 43.48C77.6523 45.18 77.2823 46.54 76.5423 47.56C75.8223 48.58 74.8023 49.09 73.4823 49.09C71.4623 49.09 70.1223 48.2 69.4623 46.42C69.0823 47.24 68.5623 47.89 67.9023 48.37C67.2423 48.85 66.4923 49.09 65.6523 49.09C62.1523 49.09 60.4023 46.8 60.4023 42.22C60.4023 39.9 60.9423 38.19 62.0223 37.09C63.1223 35.99 64.5723 35.44 66.3723 35.44C67.7523 35.44 68.7323 35.73 69.3123 36.31ZM63.6723 45.91C63.9523 46.79 64.2723 47.35 64.6323 47.59C64.9923 47.81 65.4723 47.92 66.0723 47.92C66.6723 47.92 67.3223 47.55 68.0223 46.81C68.7423 46.05 69.1023 45.07 69.1023 43.87V39.76C69.1023 38.82 68.8523 38.06 68.3523 37.48C67.8723 36.9 67.3223 36.61 66.7023 36.61C66.1023 36.61 65.6223 36.67 65.2623 36.79C64.9023 36.91 64.5623 37.16 64.2423 37.54C63.5823 38.26 63.2523 39.82 63.2523 42.22C63.2523 43.8 63.3923 45.03 63.6723 45.91ZM79.4507 43.9V48.67C79.2507 48.95 78.9007 49.09 78.4007 49.09C77.9007 49.09 77.5007 48.94 77.2007 48.64C76.9007 48.32 76.7507 47.86 76.7507 47.26V35.86C76.9507 35.58 77.3007 35.44 77.8007 35.44C78.3007 35.44 78.7007 35.6 79.0007 35.92C79.3007 36.22 79.4507 36.67 79.4507 37.27V39.55C80.4507 37.07 81.8307 35.83 83.5907 35.83C84.8507 35.83 85.7707 36.17 86.3507 36.85C86.9307 37.51 87.2207 38.3 87.2207 39.22C87.2207 39.72 87.0707 40.12 86.7707 40.42C86.4707 40.72 86.1807 40.87 85.9007 40.87C85.3807 40.87 85.0407 40.75 84.8807 40.51C85.0007 40.21 85.0607 39.78 85.0607 39.22C85.0607 38.66 84.8707 38.15 84.4907 37.69C84.1107 37.23 83.6507 37 83.1107 37C82.1707 37 81.3207 37.86 80.5607 39.58C79.8207 41.28 79.4507 42.72 79.4507 43.9ZM88.3809 32.83C88.3809 32.23 88.5309 31.78 88.8309 31.48C89.1309 31.16 89.5109 31 89.9709 31C90.4309 31 90.8009 31.14 91.0809 31.42V35.86H95.1909C95.6109 35.86 95.8809 35.94 96.0009 36.1C96.1409 36.26 96.2109 36.53 96.2109 36.91H91.0809V44.47C91.0809 45.57 91.3909 46.42 92.0109 47.02C92.6509 47.62 93.3809 47.92 94.2009 47.92C95.4409 47.92 96.3509 47.46 96.9309 46.54C97.5109 45.62 97.8009 44.13 97.8009 42.07C97.8409 41.95 97.9909 41.89 98.2509 41.89C98.6109 41.89 98.7909 42.42 98.7909 43.48C98.7909 45.1 98.3809 46.44 97.5609 47.5C96.7609 48.56 95.5209 49.09 93.8409 49.09C92.1609 49.09 90.8309 48.65 89.8509 47.77C88.8709 46.89 88.3809 45.58 88.3809 43.84V32.83Z" fill="#ACB2A3"/>
<rect x="18" y="4" width="133" height="69" rx="9" fill="#ACB2A3" fill-opacity="0.2"/>
<path d="M45.427 44.41C45.427 43.45 45.197 42.63 44.737 41.95C44.297 41.27 43.717 40.74 42.997 40.36C42.297 39.98 41.517 39.64 40.657 39.34C39.797 39.04 38.937 38.74 38.077 38.44C37.217 38.12 36.427 37.75 35.707 37.33C35.007 36.89 34.427 36.29 33.967 35.53C33.527 34.77 33.307 33.85 33.307 32.77C33.307 30.91 33.987 29.45 35.347 28.39C36.727 27.33 38.487 26.8 40.627 26.8C42.787 26.8 44.507 27.29 45.787 28.27C47.067 29.25 47.707 30.32 47.707 31.48C47.707 32.28 47.547 32.88 47.227 33.28C46.927 33.66 46.567 33.85 46.147 33.85C45.367 33.85 44.867 33.7 44.647 33.4L44.557 33.25C44.757 32.99 44.857 32.49 44.857 31.75C44.857 30.61 44.377 29.72 43.417 29.08C42.457 28.42 41.337 28.09 40.057 28.09C38.797 28.09 37.797 28.43 37.057 29.11C36.317 29.79 35.947 30.62 35.947 31.6C35.947 32.58 36.167 33.4 36.607 34.06C37.067 34.7 37.657 35.2 38.377 35.56C39.097 35.92 39.887 36.24 40.747 36.52C41.627 36.8 42.497 37.11 43.357 37.45C44.237 37.77 45.037 38.17 45.757 38.65C46.477 39.11 47.057 39.77 47.497 40.63C47.957 41.49 48.187 42.53 48.187 43.75C48.187 45.89 47.427 47.53 45.907 48.67C44.387 49.81 42.477 50.38 40.177 50.38C37.897 50.38 35.907 49.8 34.207 48.64C32.527 47.46 31.687 45.99 31.687 44.23C31.687 43.41 31.847 42.77 32.167 42.31C32.487 41.83 32.867 41.59 33.307 41.59C34.087 41.59 34.587 41.72 34.807 41.98L34.897 42.13C34.717 42.63 34.627 43.24 34.627 43.96C34.627 45.32 35.177 46.51 36.277 47.53C37.397 48.55 38.857 49.06 40.657 49.06C41.957 49.06 43.077 48.61 44.017 47.71C44.957 46.79 45.427 45.69 45.427 44.41ZM49.4102 32.83C49.4102 32.23 49.5602 31.78 49.8602 31.48C50.1602 31.16 50.5402 31 51.0002 31C51.4602 31 51.8302 31.14 52.1102 31.42V35.86H56.2202C56.6402 35.86 56.9102 35.94 57.0302 36.1C57.1702 36.26 57.2402 36.53 57.2402 36.91H52.1102V44.47C52.1102 45.57 52.4202 46.42 53.0402 47.02C53.6802 47.62 54.4102 47.92 55.2302 47.92C56.4702 47.92 57.3802 47.46 57.9602 46.54C58.5402 45.62 58.8302 44.13 58.8302 42.07C58.8702 41.95 59.0202 41.89 59.2802 41.89C59.6402 41.89 59.8202 42.42 59.8202 43.48C59.8202 45.1 59.4102 46.44 58.5902 47.5C57.7902 48.56 56.5502 49.09 54.8702 49.09C53.1902 49.09 51.8602 48.65 50.8802 47.77C49.9002 46.89 49.4102 45.58 49.4102 43.84V32.83ZM67.8123 36.31C68.0723 35.73 68.4823 35.44 69.0423 35.44C69.6223 35.44 70.0523 35.58 70.3323 35.86V44.47C70.3323 45.61 70.5123 46.47 70.8723 47.05C71.2323 47.63 71.7223 47.92 72.3423 47.92C74.2223 47.92 75.1623 45.97 75.1623 42.07C75.1823 41.95 75.3323 41.89 75.6123 41.89C75.9723 41.89 76.1523 42.42 76.1523 43.48C76.1523 45.18 75.7823 46.54 75.0423 47.56C74.3223 48.58 73.3023 49.09 71.9823 49.09C69.9623 49.09 68.6223 48.2 67.9623 46.42C67.5823 47.24 67.0623 47.89 66.4023 48.37C65.7423 48.85 64.9923 49.09 64.1523 49.09C60.6523 49.09 58.9023 46.8 58.9023 42.22C58.9023 39.9 59.4423 38.19 60.5223 37.09C61.6223 35.99 63.0723 35.44 64.8723 35.44C66.2523 35.44 67.2323 35.73 67.8123 36.31ZM62.1723 45.91C62.4523 46.79 62.7723 47.35 63.1323 47.59C63.4923 47.81 63.9723 47.92 64.5723 47.92C65.1723 47.92 65.8223 47.55 66.5223 46.81C67.2423 46.05 67.6023 45.07 67.6023 43.87V39.76C67.6023 38.82 67.3523 38.06 66.8523 37.48C66.3723 36.9 65.8223 36.61 65.2023 36.61C64.6023 36.61 64.1223 36.67 63.7623 36.79C63.4023 36.91 63.0623 37.16 62.7423 37.54C62.0823 38.26 61.7523 39.82 61.7523 42.22C61.7523 43.8 61.8923 45.03 62.1723 45.91ZM77.9507 43.9V48.67C77.7507 48.95 77.4007 49.09 76.9007 49.09C76.4007 49.09 76.0007 48.94 75.7007 48.64C75.4007 48.32 75.2507 47.86 75.2507 47.26V35.86C75.4507 35.58 75.8007 35.44 76.3007 35.44C76.8007 35.44 77.2007 35.6 77.5007 35.92C77.8007 36.22 77.9507 36.67 77.9507 37.27V39.55C78.9507 37.07 80.3307 35.83 82.0907 35.83C83.3507 35.83 84.2707 36.17 84.8507 36.85C85.4307 37.51 85.7207 38.3 85.7207 39.22C85.7207 39.72 85.5707 40.12 85.2707 40.42C84.9707 40.72 84.6807 40.87 84.4007 40.87C83.8807 40.87 83.5407 40.75 83.3807 40.51C83.5007 40.21 83.5607 39.78 83.5607 39.22C83.5607 38.66 83.3707 38.15 82.9907 37.69C82.6107 37.23 82.1507 37 81.6107 37C80.6707 37 79.8207 37.86 79.0607 39.58C78.3207 41.28 77.9507 42.72 77.9507 43.9ZM86.8809 32.83C86.8809 32.23 87.0309 31.78 87.3309 31.48C87.6309 31.16 88.0109 31 88.4709 31C88.9309 31 89.3009 31.14 89.5809 31.42V35.86H93.6909C94.1109 35.86 94.3809 35.94 94.5009 36.1C94.6409 36.26 94.7109 36.53 94.7109 36.91H89.5809V44.47C89.5809 45.57 89.8909 46.42 90.5109 47.02C91.1509 47.62 91.8809 47.92 92.7009 47.92C93.9409 47.92 94.8509 47.46 95.4309 46.54C96.0109 45.62 96.3009 44.13 96.3009 42.07C96.3409 41.95 96.4909 41.89 96.7509 41.89C97.1109 41.89 97.2909 42.42 97.2909 43.48C97.2909 45.1 96.8809 46.44 96.0609 47.5C95.2609 48.56 94.0209 49.09 92.3409 49.09C90.6609 49.09 89.3309 48.65 88.3509 47.77C87.3709 46.89 86.8809 45.58 86.8809 43.84V32.83Z" fill="#879D82"/>
<circle cx="123" cy="37" r="16.5" stroke="#ACB2A3" stroke-width="7"/>
<circle cx="124" cy="37" r="17.5" stroke="#879D82" stroke-opacity="0.9" stroke-width="5"/>
<defs>
<linearGradient id="paint0_linear" x1="128.812" y1="29" x2="128.812" y2="44" gradientUnits="userSpaceOnUse">
<stop stop-color="#879D82"/>
<stop offset="0.104167" stop-color="#879D82" stop-opacity="0.77"/>
<stop offset="0.328125" stop-color="#315637" stop-opacity="0.66"/>
<stop offset="0.666667" stop-color="#26361E" stop-opacity="0.63"/>
<stop offset="0.869792" stop-color="#627D5C" stop-opacity="0.76"/>
<stop offset="1" stop-color="#567135" stop-opacity="0.8"/>
</linearGradient>
</defs>
</svg>
