<svg width="135" height="78" viewBox="0 0 135 78" fill="none" xmlns="http://www.w3.org/2000/svg">
<rect y="2" width="134" height="75" rx="9" fill="#93A38C" fill-opacity="0.1"/>
<rect x="2" y="2" width="130" height="76" rx="9" fill="#93A38C" fill-opacity="0.15"/>
<rect x="5" width="130" height="75" rx="9" fill="#ACB2A3" fill-opacity="0.2"/>
<path d="M103 33L113 40.2L103 48V33Z" fill="url(#paint0_linear)" fill-opacity="0.8"/>
<path d="M26.927 45.41C26.927 44.45 26.697 43.63 26.237 42.95C25.797 42.27 25.217 41.74 24.497 41.36C23.797 40.98 23.017 40.64 22.157 40.34C21.297 40.04 20.437 39.74 19.577 39.44C18.717 39.12 17.927 38.75 17.207 38.33C16.507 37.89 15.927 37.29 15.467 36.53C15.027 35.77 14.807 34.85 14.807 33.77C14.807 31.91 15.487 30.45 16.847 29.39C18.227 28.33 19.987 27.8 22.127 27.8C24.287 27.8 26.007 28.29 27.287 29.27C28.567 30.25 29.207 31.32 29.207 32.48C29.207 33.28 29.047 33.88 28.727 34.28C28.427 34.66 28.067 34.85 27.647 34.85C26.867 34.85 26.367 34.7 26.147 34.4L26.057 34.25C26.257 33.99 26.357 33.49 26.357 32.75C26.357 31.61 25.877 30.72 24.917 30.08C23.957 29.42 22.837 29.09 21.557 29.09C20.297 29.09 19.297 29.43 18.557 30.11C17.817 30.79 17.447 31.62 17.447 32.6C17.447 33.58 17.667 34.4 18.107 35.06C18.567 35.7 19.157 36.2 19.877 36.56C20.597 36.92 21.387 37.24 22.247 37.52C23.127 37.8 23.997 38.11 24.857 38.45C25.737 38.77 26.537 39.17 27.257 39.65C27.977 40.11 28.557 40.77 28.997 41.63C29.457 42.49 29.687 43.53 29.687 44.75C29.687 46.89 28.927 48.53 27.407 49.67C25.887 50.81 23.977 51.38 21.677 51.38C19.397 51.38 17.407 50.8 15.707 49.64C14.027 48.46 13.187 46.99 13.187 45.23C13.187 44.41 13.347 43.77 13.667 43.31C13.987 42.83 14.367 42.59 14.807 42.59C15.587 42.59 16.087 42.72 16.307 42.98L16.397 43.13C16.217 43.63 16.127 44.24 16.127 44.96C16.127 46.32 16.677 47.51 17.777 48.53C18.897 49.55 20.357 50.06 22.157 50.06C23.457 50.06 24.577 49.61 25.517 48.71C26.457 47.79 26.927 46.69 26.927 45.41ZM30.9102 33.83C30.9102 33.23 31.0602 32.78 31.3602 32.48C31.6602 32.16 32.0402 32 32.5002 32C32.9602 32 33.3302 32.14 33.6102 32.42V36.86H37.7202C38.1402 36.86 38.4102 36.94 38.5302 37.1C38.6702 37.26 38.7402 37.53 38.7402 37.91H33.6102V45.47C33.6102 46.57 33.9202 47.42 34.5402 48.02C35.1802 48.62 35.9102 48.92 36.7302 48.92C37.9702 48.92 38.8802 48.46 39.4602 47.54C40.0402 46.62 40.3302 45.13 40.3302 43.07C40.3702 42.95 40.5202 42.89 40.7802 42.89C41.1402 42.89 41.3202 43.42 41.3202 44.48C41.3202 46.1 40.9102 47.44 40.0902 48.5C39.2902 49.56 38.0502 50.09 36.3702 50.09C34.6902 50.09 33.3602 49.65 32.3802 48.77C31.4002 47.89 30.9102 46.58 30.9102 44.84V33.83ZM49.3123 37.31C49.5723 36.73 49.9823 36.44 50.5423 36.44C51.1223 36.44 51.5523 36.58 51.8323 36.86V45.47C51.8323 46.61 52.0123 47.47 52.3723 48.05C52.7323 48.63 53.2223 48.92 53.8423 48.92C55.7223 48.92 56.6623 46.97 56.6623 43.07C56.6823 42.95 56.8323 42.89 57.1123 42.89C57.4723 42.89 57.6523 43.42 57.6523 44.48C57.6523 46.18 57.2823 47.54 56.5423 48.56C55.8223 49.58 54.8023 50.09 53.4823 50.09C51.4623 50.09 50.1223 49.2 49.4623 47.42C49.0823 48.24 48.5623 48.89 47.9023 49.37C47.2423 49.85 46.4923 50.09 45.6523 50.09C42.1523 50.09 40.4023 47.8 40.4023 43.22C40.4023 40.9 40.9423 39.19 42.0223 38.09C43.1223 36.99 44.5723 36.44 46.3723 36.44C47.7523 36.44 48.7323 36.73 49.3123 37.31ZM43.6723 46.91C43.9523 47.79 44.2723 48.35 44.6323 48.59C44.9923 48.81 45.4723 48.92 46.0723 48.92C46.6723 48.92 47.3223 48.55 48.0223 47.81C48.7423 47.05 49.1023 46.07 49.1023 44.87V40.76C49.1023 39.82 48.8523 39.06 48.3523 38.48C47.8723 37.9 47.3223 37.61 46.7023 37.61C46.1023 37.61 45.6223 37.67 45.2623 37.79C44.9023 37.91 44.5623 38.16 44.2423 38.54C43.5823 39.26 43.2523 40.82 43.2523 43.22C43.2523 44.8 43.3923 46.03 43.6723 46.91ZM59.4507 44.9V49.67C59.2507 49.95 58.9007 50.09 58.4007 50.09C57.9007 50.09 57.5007 49.94 57.2007 49.64C56.9007 49.32 56.7507 48.86 56.7507 48.26V36.86C56.9507 36.58 57.3007 36.44 57.8007 36.44C58.3007 36.44 58.7007 36.6 59.0007 36.92C59.3007 37.22 59.4507 37.67 59.4507 38.27V40.55C60.4507 38.07 61.8307 36.83 63.5907 36.83C64.8507 36.83 65.7707 37.17 66.3507 37.85C66.9307 38.51 67.2207 39.3 67.2207 40.22C67.2207 40.72 67.0707 41.12 66.7707 41.42C66.4707 41.72 66.1807 41.87 65.9007 41.87C65.3807 41.87 65.0407 41.75 64.8807 41.51C65.0007 41.21 65.0607 40.78 65.0607 40.22C65.0607 39.66 64.8707 39.15 64.4907 38.69C64.1107 38.23 63.6507 38 63.1107 38C62.1707 38 61.3207 38.86 60.5607 40.58C59.8207 42.28 59.4507 43.72 59.4507 44.9ZM68.3809 33.83C68.3809 33.23 68.5309 32.78 68.8309 32.48C69.1309 32.16 69.5109 32 69.9709 32C70.4309 32 70.8009 32.14 71.0809 32.42V36.86H75.1909C75.6109 36.86 75.8809 36.94 76.0009 37.1C76.1409 37.26 76.2109 37.53 76.2109 37.91H71.0809V45.47C71.0809 46.57 71.3909 47.42 72.0109 48.02C72.6509 48.62 73.3809 48.92 74.2009 48.92C75.4409 48.92 76.3509 48.46 76.9309 47.54C77.5109 46.62 77.8009 45.13 77.8009 43.07C77.8409 42.95 77.9909 42.89 78.2509 42.89C78.6109 42.89 78.7909 43.42 78.7909 44.48C78.7909 46.1 78.3809 47.44 77.5609 48.5C76.7609 49.56 75.5209 50.09 73.8409 50.09C72.1609 50.09 70.8309 49.65 69.8509 48.77C68.8709 47.89 68.3809 46.58 68.3809 44.84V33.83Z" fill="#ACB2A3"/>
<circle cx="106" cy="40" r="16.5" stroke="#ACB2A3" stroke-width="7"/>
<circle cx="107" cy="40" r="17.5" stroke="#879D82" stroke-opacity="0.9" stroke-width="5"/>
<path d="M24.927 46.41C24.927 45.45 24.697 44.63 24.237 43.95C23.797 43.27 23.217 42.74 22.497 42.36C21.797 41.98 21.017 41.64 20.157 41.34C19.297 41.04 18.437 40.74 17.577 40.44C16.717 40.12 15.927 39.75 15.207 39.33C14.507 38.89 13.927 38.29 13.467 37.53C13.027 36.77 12.807 35.85 12.807 34.77C12.807 32.91 13.487 31.45 14.847 30.39C16.227 29.33 17.987 28.8 20.127 28.8C22.287 28.8 24.007 29.29 25.287 30.27C26.567 31.25 27.207 32.32 27.207 33.48C27.207 34.28 27.047 34.88 26.727 35.28C26.427 35.66 26.067 35.85 25.647 35.85C24.867 35.85 24.367 35.7 24.147 35.4L24.057 35.25C24.257 34.99 24.357 34.49 24.357 33.75C24.357 32.61 23.877 31.72 22.917 31.08C21.957 30.42 20.837 30.09 19.557 30.09C18.297 30.09 17.297 30.43 16.557 31.11C15.817 31.79 15.447 32.62 15.447 33.6C15.447 34.58 15.667 35.4 16.107 36.06C16.567 36.7 17.157 37.2 17.877 37.56C18.597 37.92 19.387 38.24 20.247 38.52C21.127 38.8 21.997 39.11 22.857 39.45C23.737 39.77 24.537 40.17 25.257 40.65C25.977 41.11 26.557 41.77 26.997 42.63C27.457 43.49 27.687 44.53 27.687 45.75C27.687 47.89 26.927 49.53 25.407 50.67C23.887 51.81 21.977 52.38 19.677 52.38C17.397 52.38 15.407 51.8 13.707 50.64C12.027 49.46 11.187 47.99 11.187 46.23C11.187 45.41 11.347 44.77 11.667 44.31C11.987 43.83 12.367 43.59 12.807 43.59C13.587 43.59 14.087 43.72 14.307 43.98L14.397 44.13C14.217 44.63 14.127 45.24 14.127 45.96C14.127 47.32 14.677 48.51 15.777 49.53C16.897 50.55 18.357 51.06 20.157 51.06C21.457 51.06 22.577 50.61 23.517 49.71C24.457 48.79 24.927 47.69 24.927 46.41ZM28.9102 34.83C28.9102 34.23 29.0602 33.78 29.3602 33.48C29.6602 33.16 30.0402 33 30.5002 33C30.9602 33 31.3302 33.14 31.6102 33.42V37.86H35.7202C36.1402 37.86 36.4102 37.94 36.5302 38.1C36.6702 38.26 36.7402 38.53 36.7402 38.91H31.6102V46.47C31.6102 47.57 31.9202 48.42 32.5402 49.02C33.1802 49.62 33.9102 49.92 34.7302 49.92C35.9702 49.92 36.8802 49.46 37.4602 48.54C38.0402 47.62 38.3302 46.13 38.3302 44.07C38.3702 43.95 38.5202 43.89 38.7802 43.89C39.1402 43.89 39.3202 44.42 39.3202 45.48C39.3202 47.1 38.9102 48.44 38.0902 49.5C37.2902 50.56 36.0502 51.09 34.3702 51.09C32.6902 51.09 31.3602 50.65 30.3802 49.77C29.4002 48.89 28.9102 47.58 28.9102 45.84V34.83ZM47.3123 38.31C47.5723 37.73 47.9823 37.44 48.5423 37.44C49.1223 37.44 49.5523 37.58 49.8323 37.86V46.47C49.8323 47.61 50.0123 48.47 50.3723 49.05C50.7323 49.63 51.2223 49.92 51.8423 49.92C53.7223 49.92 54.6623 47.97 54.6623 44.07C54.6823 43.95 54.8323 43.89 55.1123 43.89C55.4723 43.89 55.6523 44.42 55.6523 45.48C55.6523 47.18 55.2823 48.54 54.5423 49.56C53.8223 50.58 52.8023 51.09 51.4823 51.09C49.4623 51.09 48.1223 50.2 47.4623 48.42C47.0823 49.24 46.5623 49.89 45.9023 50.37C45.2423 50.85 44.4923 51.09 43.6523 51.09C40.1523 51.09 38.4023 48.8 38.4023 44.22C38.4023 41.9 38.9423 40.19 40.0223 39.09C41.1223 37.99 42.5723 37.44 44.3723 37.44C45.7523 37.44 46.7323 37.73 47.3123 38.31ZM41.6723 47.91C41.9523 48.79 42.2723 49.35 42.6323 49.59C42.9923 49.81 43.4723 49.92 44.0723 49.92C44.6723 49.92 45.3223 49.55 46.0223 48.81C46.7423 48.05 47.1023 47.07 47.1023 45.87V41.76C47.1023 40.82 46.8523 40.06 46.3523 39.48C45.8723 38.9 45.3223 38.61 44.7023 38.61C44.1023 38.61 43.6223 38.67 43.2623 38.79C42.9023 38.91 42.5623 39.16 42.2423 39.54C41.5823 40.26 41.2523 41.82 41.2523 44.22C41.2523 45.8 41.3923 47.03 41.6723 47.91ZM57.4507 45.9V50.67C57.2507 50.95 56.9007 51.09 56.4007 51.09C55.9007 51.09 55.5007 50.94 55.2007 50.64C54.9007 50.32 54.7507 49.86 54.7507 49.26V37.86C54.9507 37.58 55.3007 37.44 55.8007 37.44C56.3007 37.44 56.7007 37.6 57.0007 37.92C57.3007 38.22 57.4507 38.67 57.4507 39.27V41.55C58.4507 39.07 59.8307 37.83 61.5907 37.83C62.8507 37.83 63.7707 38.17 64.3507 38.85C64.9307 39.51 65.2207 40.3 65.2207 41.22C65.2207 41.72 65.0707 42.12 64.7707 42.42C64.4707 42.72 64.1807 42.87 63.9007 42.87C63.3807 42.87 63.0407 42.75 62.8807 42.51C63.0007 42.21 63.0607 41.78 63.0607 41.22C63.0607 40.66 62.8707 40.15 62.4907 39.69C62.1107 39.23 61.6507 39 61.1107 39C60.1707 39 59.3207 39.86 58.5607 41.58C57.8207 43.28 57.4507 44.72 57.4507 45.9ZM66.3809 34.83C66.3809 34.23 66.5309 33.78 66.8309 33.48C67.1309 33.16 67.5109 33 67.9709 33C68.4309 33 68.8009 33.14 69.0809 33.42V37.86H73.1909C73.6109 37.86 73.8809 37.94 74.0009 38.1C74.1409 38.26 74.2109 38.53 74.2109 38.91H69.0809V46.47C69.0809 47.57 69.3909 48.42 70.0109 49.02C70.6509 49.62 71.3809 49.92 72.2009 49.92C73.4409 49.92 74.3509 49.46 74.9309 48.54C75.5109 47.62 75.8009 46.13 75.8009 44.07C75.8409 43.95 75.9909 43.89 76.2509 43.89C76.6109 43.89 76.7909 44.42 76.7909 45.48C76.7909 47.1 76.3809 48.44 75.5609 49.5C74.7609 50.56 73.5209 51.09 71.8409 51.09C70.1609 51.09 68.8309 50.65 67.8509 49.77C66.8709 48.89 66.3809 47.58 66.3809 45.84V34.83Z" fill="#8B9F86"/>
<defs>
<linearGradient id="paint0_linear" x1="110.812" y1="33" x2="110.812" y2="48" gradientUnits="userSpaceOnUse">
<stop stop-color="#879D82"/>
<stop offset="0.104167" stop-color="#879D82" stop-opacity="0.77"/>
<stop offset="0.328125" stop-color="#315637" stop-opacity="0.66"/>
<stop offset="0.666667" stop-color="#26361E" stop-opacity="0.63"/>
<stop offset="0.869792" stop-color="#627D5C" stop-opacity="0.76"/>
<stop offset="1" stop-color="#567135" stop-opacity="0.8"/>
</linearGradient>
</defs>
</svg>
